<svg width="32" height="32" viewBox="0 0 32 32" fill="none" xmlns="http://www.w3.org/2000/svg">
<path fill-rule="evenodd" clip-rule="evenodd" d="M16 24C20.4183 24 24 20.4183 24 16C24 11.5817 20.4183 8 16 8C11.5817 8 8 11.5817 8 16C8 20.4183 11.5817 24 16 24ZM16 21.3333C18.9455 21.3333 21.3333 18.9455 21.3333 16C21.3333 13.0545 18.9455 10.6667 16 10.6667C13.0545 10.6667 10.6667 13.0545 10.6667 16C10.6667 18.9455 13.0545 21.3333 16 21.3333Z" fill="white"/>
<path d="M24 6.66663C23.2636 6.66663 22.6667 7.26359 22.6667 7.99996C22.6667 8.73633 23.2636 9.33329 24 9.33329C24.7364 9.33329 25.3334 8.73633 25.3334 7.99996C25.3334 7.26359 24.7364 6.66663 24 6.66663Z" fill="white"/>
<path fill-rule="evenodd" clip-rule="evenodd" d="M2.20529 5.70145C1.33334 7.41275 1.33334 9.65296 1.33334 14.1334V17.8667C1.33334 22.3471 1.33334 24.5874 2.20529 26.2986C2.97228 27.8039 4.19612 29.0278 5.70142 29.7947C7.41272 30.6667 9.65293 30.6667 14.1333 30.6667H17.8667C22.3471 30.6667 24.5873 30.6667 26.2985 29.7947C27.8039 29.0278 29.0277 27.8039 29.7947 26.2986C30.6667 24.5874 30.6667 22.3471 30.6667 17.8667V14.1334C30.6667 9.65296 30.6667 7.41275 29.7947 5.70145C29.0277 4.19615 27.8039 2.97231 26.2985 2.20532C24.5873 1.33337 22.3471 1.33337 17.8667 1.33337H14.1333C9.65293 1.33337 7.41272 1.33337 5.70142 2.20532C4.19612 2.97231 2.97228 4.19615 2.20529 5.70145ZM17.8667 4.00004H14.1333C11.8491 4.00004 10.2963 4.00212 9.09612 4.10017C7.927 4.19569 7.32913 4.36883 6.91206 4.58133C5.90853 5.09267 5.09264 5.90856 4.5813 6.91209C4.3688 7.32916 4.19566 7.92703 4.10014 9.09615C4.00209 10.2964 4.00001 11.8492 4.00001 14.1334V17.8667C4.00001 20.151 4.00209 21.7036 4.10014 22.9039C4.19566 24.0731 4.3688 24.671 4.5813 25.088C5.09264 26.0915 5.90853 26.9074 6.91206 27.4187C7.32913 27.6312 7.927 27.8044 9.09612 27.8999C10.2963 27.9979 11.8491 28 14.1333 28H17.8667C20.1509 28 21.7036 27.9979 22.9039 27.8999C24.0731 27.8044 24.6709 27.6312 25.088 27.4187C26.0915 26.9074 26.9073 26.0915 27.4187 25.088C27.6312 24.671 27.8044 24.0731 27.8999 22.9039C27.9979 21.7036 28 20.151 28 17.8667V14.1334C28 11.8492 27.9979 10.2964 27.8999 9.09615C27.8044 7.92703 27.6312 7.32916 27.4187 6.91209C26.9073 5.90856 26.0915 5.09267 25.088 4.58133C24.6709 4.36883 24.0731 4.19569 22.9039 4.10017C21.7036 4.00212 20.1509 4.00004 17.8667 4.00004Z" fill="white"/>
</svg>
