<svg width="26" height="32" viewBox="0 0 26 32" fill="none" xmlns="http://www.w3.org/2000/svg">
<path d="M10.7904 21.1547C9.95144 25.5515 8.92763 29.7668 5.89375 31.9687C4.9565 25.3231 7.26838 20.332 8.34207 15.033C6.51125 11.9523 8.56194 5.75192 12.4224 7.27936C17.1724 9.15848 8.30932 18.7343 14.2586 19.9304C20.4714 21.1788 23.0079 9.15067 19.1561 5.23954C13.5896 -0.408706 2.95332 5.11092 4.26094 13.1975C4.57907 15.1742 6.62125 15.7738 5.07732 18.5028C1.51475 17.7122 0.452002 14.9028 0.58844 11.157C0.809065 5.02523 6.09725 0.732794 11.4024 0.138669C18.1112 -0.612206 24.4075 2.60104 25.2769 8.91217C26.2563 16.0358 22.2493 23.7504 15.075 23.1952C13.1303 23.044 12.3139 22.0802 10.7904 21.1547Z" fill="white"/>
</svg>
