<svg width="32" height="32" viewBox="0 0 32 32" fill="none" xmlns="http://www.w3.org/2000/svg">
<path d="M29.334 17.4569C29.3059 15.156 28.6249 12.9111 27.3711 10.9865C26.1174 9.06199 24.3433 7.53796 22.2576 6.59395C20.1718 5.64994 17.8615 5.32527 15.5985 5.65814C13.3356 5.99102 11.2143 6.96759 9.48448 8.47287C7.75466 9.97813 6.48836 11.9494 5.83472 14.1545C5.18109 16.3596 5.16732 18.7067 5.79506 20.9195C6.4228 23.1322 7.66588 25.1183 9.37793 26.644C11.09 28.1698 13.1997 29.1715 15.4585 29.5311V20.9735H12.4585V17.4569H15.4585V14.7855C15.3891 14.1643 15.456 13.5354 15.6546 12.9431C15.8532 12.3508 16.1786 11.8096 16.6077 11.3576C17.0369 10.9056 17.5594 10.554 18.1384 10.3274C18.7174 10.1008 19.3389 10.0049 19.9587 10.0464C20.8584 10.0588 21.756 10.1395 22.6438 10.2879V13.3064H21.1437C20.8851 13.2736 20.6223 13.2997 20.3751 13.3827C20.1277 13.4658 19.9021 13.6037 19.7149 13.7862C19.5277 13.9688 19.3837 14.1914 19.2936 14.4374C19.2033 14.6836 19.1692 14.947 19.1937 15.2081V17.4871H22.5238L21.9837 21.0037H19.2087V29.4557C22.0436 29.0045 24.624 27.546 26.4816 25.3445C28.3393 23.1431 29.3512 20.3447 29.334 17.4569Z" fill="white"/>
</svg>
