<svg width="32" height="32" viewBox="0 0 32 32" fill="none" xmlns="http://www.w3.org/2000/svg">
<g clip-path="url(#clip0_26_1799)">
<path d="M11.92 24.9399C13.6091 24.9506 15.2836 24.6257 16.8462 23.9842C18.4088 23.3427 19.8285 22.3973 21.0229 21.2029C22.2174 20.0085 23.1627 18.5888 23.8043 17.0261C24.4458 15.4635 24.7706 13.7891 24.76 12.0999C24.76 11.8999 24.76 11.7099 24.76 11.5099C25.6356 10.8684 26.3935 10.0801 27 9.17994C26.1755 9.54054 25.3031 9.77969 24.41 9.88994C25.3569 9.32572 26.0674 8.43761 26.41 7.38994C25.5275 7.91938 24.5598 8.29158 23.55 8.48994C22.8699 7.76531 21.97 7.285 20.9895 7.12333C20.0089 6.96166 19.0024 7.12764 18.1257 7.5956C17.249 8.06355 16.551 8.80739 16.1396 9.71202C15.7282 10.6167 15.6264 11.6316 15.85 12.5999C14.056 12.5119 12.3007 12.047 10.6984 11.2354C9.096 10.4239 7.68254 9.28402 6.55 7.88994C5.97892 8.88112 5.80583 10.0523 6.06576 11.1663C6.32569 12.2803 6.99923 13.2539 7.95 13.8899C7.24861 13.8629 6.56345 13.671 5.95 13.3299V13.3799C5.94377 14.4158 6.29272 15.4225 6.9387 16.2322C7.58469 17.042 8.48867 17.6059 9.5 17.8299C8.84764 18.0054 8.16429 18.0327 7.5 17.9099C7.79278 18.7933 8.35168 19.5645 9.10005 20.1177C9.84841 20.6709 10.7496 20.9791 11.68 20.9999C10.0892 22.2805 8.11209 22.9853 6.07 22.9999C5.71195 22.9896 5.35475 22.9595 5 22.9099C7.06696 24.2268 9.4692 24.9211 11.92 24.9099" fill="white"/>
</g>
<defs>
<clipPath id="clip0_26_1799">
<rect width="32" height="32" fill="white"/>
</clipPath>
</defs>
</svg>
