<svg width="32" height="32" viewBox="0 0 32 32" fill="none" xmlns="http://www.w3.org/2000/svg">
<path d="M29.334 17.457C29.3059 15.1561 28.6249 12.9112 27.3711 10.9867C26.1174 9.06211 24.3433 7.53808 22.2576 6.59407C20.1718 5.65006 17.8615 5.32539 15.5985 5.65826C13.3356 5.99115 11.2143 6.96771 9.48448 8.47299C7.75466 9.97826 6.48836 11.9495 5.83472 14.1546C5.18109 16.3598 5.16732 18.7068 5.79506 20.9196C6.4228 23.1324 7.66588 25.1184 9.37793 26.6441C11.09 28.1699 13.1997 29.1716 15.4585 29.5312V20.9736H12.4585V17.457H15.4585V14.7856C15.3891 14.1645 15.456 13.5355 15.6546 12.9432C15.8532 12.3509 16.1786 11.8097 16.6077 11.3577C17.0369 10.9058 17.5594 10.5541 18.1384 10.3275C18.7174 10.101 19.3389 10.005 19.9587 10.0465C20.8584 10.0589 21.756 10.1396 22.6438 10.288V13.3065H21.1437C20.8851 13.2737 20.6223 13.2998 20.3751 13.3828C20.1277 13.4659 19.9021 13.6038 19.7149 13.7864C19.5277 13.9689 19.3837 14.1915 19.2936 14.4375C19.2033 14.6837 19.1692 14.9471 19.1937 15.2082V17.4872H22.5238L21.9837 21.0038H19.2087V29.4558C22.0436 29.0047 24.624 27.5461 26.4816 25.3447C28.3393 23.1432 29.3512 20.3449 29.334 17.457Z" fill="white"/>
</svg>
